# xmcd
#
# Track frame offsets: 
#        187
#        19227
#        39057
#        60455
#
# Disc length: 1030 seconds
#
# Revision: 2
# Processed by: cddbd v1.5.2PL0 Copyright (c) Steve Scherf et al.
# Submitted via: ExactAudioCopy v0.99pb5
#
DISCID=24040404
DTITLE=The Black Crows - Twice As Hard (Single)
DYEAR=1991
DGENRE=Hard Rock
TTITLE0=Twice As Hard
TTITLE1=Jealous Guy (Live)
TTITLE2=Jealous Again (Live)
TTITLE3=Could I've Been So Blind
EXTD=
EXTT0=
EXTT1=
EXTT2=
EXTT3=
PLAYORDER=
